<svg id="Layer_1" data-name="Layer 1" xmlns="http://www.w3.org/2000/svg" viewBox="0 0 12 19"><defs><style>.cls-1{fill:#323232;}</style></defs><title>icon_login</title><path id="Fill-4" class="cls-1" d="M4.45,3.8a2.65,2.65,0,0,0,2.6,2.6,2.65,2.65,0,0,0,2.6-2.6,2.65,2.65,0,0,0-2.6-2.6A2.58,2.58,0,0,0,4.45,3.8Zm-.7,0A3.33,3.33,0,0,1,7.05.5a3.31,3.31,0,0,1,3.2,3.3A3.29,3.29,0,0,1,7.05,7,3.31,3.31,0,0,1,3.75,3.8Z" transform="translate(-1 -0.5)"/><path id="Fill-1" class="cls-1" d="M7,9.5a6.24,6.24,0,0,1,6,6.4v3.2a.43.43,0,0,1-.4.4H1.4a.43.43,0,0,1-.4-.4V15.9A6.24,6.24,0,0,1,7,9.5Zm0,.8a5.36,5.36,0,0,0-5.2,5.5v2.8H12.2V15.8A5.36,5.36,0,0,0,7,10.3Z" transform="translate(-1 -0.5)"/></svg>