<?xml version="1.0" encoding="utf-8"?>
<!-- Generator: Adobe Illustrator 24.0.2, SVG Export Plug-In . SVG Version: 6.00 Build 0)  -->
<svg version="1.1" id="Layer_1" xmlns="http://www.w3.org/2000/svg" xmlns:xlink="http://www.w3.org/1999/xlink" x="0px" y="0px"
	 viewBox="0 0 20 20" style="enable-background:new 0 0 20 20;" xml:space="preserve">
<style type="text/css">
	.st0{filter:url(#Adobe_OpacityMaskFilter);}
	.st1{fill-rule:evenodd;clip-rule:evenodd;fill:#FFFFFF;}
	.st2{mask:url(#b_3_);fill:#795548;}
	.st3{filter:url(#Adobe_OpacityMaskFilter_1_);}
	.st4{mask:url(#d_3_);fill:#795548;}
</style>
<g transform="translate(0 8)">
	<defs>
		<filter id="Adobe_OpacityMaskFilter" filterUnits="userSpaceOnUse" x="0" y="0" width="20" height="12">
			<feColorMatrix  type="matrix" values="1 0 0 0 0  0 1 0 0 0  0 0 1 0 0  0 0 0 1 0"/>
		</filter>
	</defs>
	<mask maskUnits="userSpaceOnUse" x="0" y="0" width="20" height="12" id="b_3_">
		<g class="st0">
			<path id="a_3_" class="st1" d="M2,0l2,10h12l2-10h2v12H0V0H2z"/>
		</g>
	</mask>
	<path class="st2" d="M18,12H2L0,0h20L18,12z M3.7,10h12.6l1.3-8H2.4L3.7,10z"/>
</g>
<defs>
	<filter id="Adobe_OpacityMaskFilter_1_" filterUnits="userSpaceOnUse" x="4" y="0" width="12" height="6">
		<feColorMatrix  type="matrix" values="1 0 0 0 0  0 1 0 0 0  0 0 1 0 0  0 0 0 1 0"/>
	</filter>
</defs>
<mask maskUnits="userSpaceOnUse" x="4" y="0" width="12" height="6" id="d_3_">
	<g class="st3">
		<path id="c_3_" class="st1" d="M0,0h20v6H0V0z"/>
	</g>
</mask>
<path class="st4" d="M16,6h-2c0-2.2-1.8-4-4-4C7.8,2,6,3.8,6,6H4c0-3.3,2.7-6,6-6S16,2.7,16,6z"/>
</svg>
