<?xml version="1.0" encoding="utf-8"?>
<!-- Generator: Adobe Illustrator 24.0.2, SVG Export Plug-In . SVG Version: 6.00 Build 0)  -->
<svg version="1.1" id="Layer_1" xmlns="http://www.w3.org/2000/svg" xmlns:xlink="http://www.w3.org/1999/xlink" x="0px" y="0px"
	 viewBox="0 0 14 20" style="enable-background:new 0 0 14 20;" xml:space="preserve">
<style type="text/css">
	.st0{fill:#323232;}
</style>
<title>Iconography/Login White</title>
<desc>Created with Sketch.</desc>
<path id="Fill-4" class="st0" d="M4.4,3.8c0,1.4,1.2,2.6,2.6,2.6s2.6-1.2,2.6-2.6S8.4,1.2,7.1,1.2S4.4,2.3,4.4,3.8z M3.8,3.8
	c0-1.8,1.5-3.3,3.3-3.3c1.7,0,3.2,1.5,3.2,3.3C10.3,5.5,8.8,7,7.1,7C5.3,7,3.8,5.5,3.8,3.8z"/>
<path id="Fill-1" class="st0" d="M7,9.5c3.3,0,6,2.9,6,6.4v3.2c0,0.2-0.2,0.4-0.4,0.4H1.4c-0.2,0-0.4-0.2-0.4-0.4v-3.2
	C1,12.4,3.7,9.5,7,9.5z M7,10.3c-2.9,0-5.2,2.5-5.2,5.5v2.8h10.4v-2.8C12.2,12.8,9.9,10.3,7,10.3z"/>
</svg>
